<svg xmlns="http://www.w3.org/2000/svg" width="1200" height="320" viewBox="0 0 1200 320" fill="none">
  <defs>
    <linearGradient id="iconBg" x1="36" y1="24" x2="284" y2="272" gradientUnits="userSpaceOnUse">
      <stop offset="0" stop-color="#061311" />
      <stop offset="1" stop-color="#0B1F1A" />
    </linearGradient>
    <linearGradient id="iconDb" x1="92" y1="70" x2="236" y2="236" gradientUnits="userSpaceOnUse">
      <stop offset="0" stop-color="#4CE2B5" />
      <stop offset="1" stop-color="#6CF5D0" />
    </linearGradient>
    <linearGradient id="iconAccent" x1="124" y1="70" x2="234" y2="208" gradientUnits="userSpaceOnUse">
      <stop offset="0" stop-color="#F8FAFC" stop-opacity="0.96" />
      <stop offset="1" stop-color="#CFFAFE" stop-opacity="0.38" />
    </linearGradient>
  </defs>
  <rect x="24" y="24" width="272" height="272" rx="64" fill="url(#iconBg)" />
  <ellipse cx="160" cy="106" rx="76" ry="28" fill="url(#iconDb)" />
  <path d="M84 106V150C84 165.464 118.026 178 160 178C201.974 178 236 165.464 236 150V106" fill="url(#iconDb)" />
  <ellipse cx="160" cy="150" rx="76" ry="28" fill="url(#iconDb)" />
  <path d="M84 150V194C84 209.464 118.026 222 160 222C201.974 222 236 209.464 236 194V150" fill="url(#iconDb)" />
  <ellipse cx="160" cy="194" rx="76" ry="28" fill="url(#iconDb)" />
  <path d="M202 76L125 187H159L118 264L194 161H162L202 76Z" fill="url(#iconAccent)" />
  <text x="352" y="144" fill="#F3FFF9" font-family="Helvetica, Arial, sans-serif" font-size="96" font-weight="700" letter-spacing="-2">Hypertill DB</text>
  <text x="356" y="206" fill="#A8CABB" font-family="Helvetica, Arial, sans-serif" font-size="30" font-weight="500" letter-spacing="1.2">Reactive database framework</text>
</svg>
